<mxfile host="app.diagrams.net" modified="2024-01-02T17:18:34.941Z" agent="Mozilla/5.0 (Windows NT 10.0; Win64; x64) AppleWebKit/537.36 (KHTML, like Gecko) Chrome/120.0.0.0 Safari/537.36 Edg/120.0.0.0" version="22.1.16" etag="JJZ0lLlKPVDRQ0yPJo_s" type="github">
  <diagram name="Page-1" id="3R48YCL4sQ0zRlTg1M3v">
    <mxGraphModel>
      <root>
        <mxCell id="0" />
        <mxCell id="1" parent="0" />
      </root>
    </mxGraphModel>
  </diagram>
</mxfile>
